<mxfile host="app.diagrams.net" modified="2023-03-27T09:03:45.554Z" agent="Mozilla/5.0 (Macintosh; Intel Mac OS X 10_15_7) AppleWebKit/537.36 (KHTML, like Gecko) Chrome/111.0.0.0 Safari/537.36" etag="aYmGHVd4RGgPubVDi3Us" version="21.1.1" type="github">
  <diagram name="第 1 页" id="KEqzkjeVVPwKNOWk85qe">
    <mxGraphModel dx="1026" dy="603" grid="1" gridSize="10" guides="1" tooltips="1" connect="1" arrows="1" fold="1" page="1" pageScale="1" pageWidth="827" pageHeight="1169" math="0" shadow="0">
      <root>
        <mxCell id="0" />
        <mxCell id="1" parent="0" />
        <mxCell id="DqHlZKXtZJe-y9qGXtl1-1" value="秦雷" style="ellipse;whiteSpace=wrap;html=1;aspect=fixed;" vertex="1" parent="1">
          <mxGeometry x="240" y="280" width="80" height="80" as="geometry" />
        </mxCell>
        <mxCell id="DqHlZKXtZJe-y9qGXtl1-2" value="盾" style="ellipse;whiteSpace=wrap;html=1;aspect=fixed;" vertex="1" parent="1">
          <mxGeometry x="160" y="210" width="50" height="50" as="geometry" />
        </mxCell>
        <mxCell id="DqHlZKXtZJe-y9qGXtl1-4" value="弓" style="ellipse;whiteSpace=wrap;html=1;aspect=fixed;" vertex="1" parent="1">
          <mxGeometry x="350" y="370" width="50" height="50" as="geometry" />
        </mxCell>
        <mxCell id="DqHlZKXtZJe-y9qGXtl1-5" value="盾" style="ellipse;whiteSpace=wrap;html=1;aspect=fixed;" vertex="1" parent="1">
          <mxGeometry x="160" y="370" width="50" height="50" as="geometry" />
        </mxCell>
        <mxCell id="DqHlZKXtZJe-y9qGXtl1-6" value="弓" style="ellipse;whiteSpace=wrap;html=1;aspect=fixed;" vertex="1" parent="1">
          <mxGeometry x="350" y="210" width="50" height="50" as="geometry" />
        </mxCell>
        <mxCell id="DqHlZKXtZJe-y9qGXtl1-7" value="猪" style="ellipse;whiteSpace=wrap;html=1;aspect=fixed;" vertex="1" parent="1">
          <mxGeometry x="361" y="300" width="40" height="40" as="geometry" />
        </mxCell>
        <mxCell id="DqHlZKXtZJe-y9qGXtl1-8" value="" style="endArrow=classic;html=1;rounded=0;exitX=0;exitY=0.5;exitDx=0;exitDy=0;" edge="1" parent="1" source="DqHlZKXtZJe-y9qGXtl1-7" target="DqHlZKXtZJe-y9qGXtl1-1">
          <mxGeometry width="50" height="50" relative="1" as="geometry">
            <mxPoint x="390" y="340" as="sourcePoint" />
            <mxPoint x="440" y="290" as="targetPoint" />
          </mxGeometry>
        </mxCell>
        <mxCell id="DqHlZKXtZJe-y9qGXtl1-10" value="起手黄破飞刀然后砸" style="text;html=1;strokeColor=none;fillColor=none;align=center;verticalAlign=middle;whiteSpace=wrap;rounded=0;" vertex="1" parent="1">
          <mxGeometry x="414" y="305" width="60" height="30" as="geometry" />
        </mxCell>
      </root>
    </mxGraphModel>
  </diagram>
</mxfile>
